<svg xmlns="http://www.w3.org/2000/svg" width="200mm" height="200mm" viewBox="0 0 200 200"><defs><path id="a" d="M13.033 5.666h253.134v206.341H13.033z"/></defs><g style="line-height:1.25;-inkscape-font-specification:'Bungee Inline';white-space:pre;shape-inside:url(#a)" transform="translate(-15.93 -4.885)" aria-label="FW" font-weight="400" font-size="158.75" font-family="Bungee Inline" letter-spacing="-25.665" word-spacing="0" fill="#fff"><path style="-inkscape-font-specification:'Bungee Inline'" d="M54.308 162.035H29.702q-3.016 0-4.445-1.27-1.27-1.429-1.27-4.445V53.45q0-3.016 1.27-4.286 1.429-1.43 4.445-1.43h70.802q3.017 0 4.287 1.43 1.428 1.27 1.428 4.286V72.34q0 3.016-1.428 4.445-1.27 1.27-4.287 1.27h-40.48v16.51h27.622q3.016 0 4.286 1.429 1.429 1.27 1.429 4.286v19.05q0 3.016-1.429 4.445-1.27 1.27-4.286 1.27H60.023v31.274q0 3.016-1.429 4.445-1.27 1.27-4.286 1.27zm-13.017-14.288h1.587V110.6h36.195v-1.588H42.878V63.61h49.054v-1.588H41.291z"/><path style="-inkscape-font-specification:'Bungee Inline'" d="M155.167 107.266h-7.144q-2.54 0-4.127 1.588-1.588 1.428-3.651 5.873l-13.018 29.21q-.635 1.588-1.905 1.905-1.27.318-2.381.318h-.794q-1.27 0-2.381-.953-1.111-1.111-1.27-2.381l-3.969-18.097q-.635-3.017-.794-7.78V62.023h-1.587v55.087q.159 4.762.794 7.778l3.968 17.939q.635 2.54 1.905 3.81 1.429 1.111 3.334 1.111h1.111q1.429 0 3.017-.476 1.587-.635 2.222-2.222l13.018-29.528q1.905-4.286 3.175-5.397 1.428-1.27 3.333-1.27h7.144q1.905 0 3.175 1.27 1.429 1.11 3.334 5.397l13.017 29.528q.635 1.587 2.223 2.222 1.587.476 3.016.476h1.111q1.905 0 3.175-1.111 1.43-1.27 2.064-3.81l3.969-17.939q.635-3.016.635-7.778.159-4.763.159-8.255V62.022h-1.588v46.673q0 3.492-.159 8.255 0 4.762-.635 7.779l-3.968 18.097q-.16 1.27-1.27 2.381-1.112.953-2.382.953h-.793q-1.112 0-2.382-.318-1.27-.317-1.905-1.905l-13.017-29.21q-2.064-4.445-3.651-5.873-1.588-1.588-4.128-1.588zm23.336-59.531h23.654q3.016 0 4.286 1.429 1.429 1.27 1.429 4.286v61.595q0 5.08-.476 9.525-.318 4.286-2.381 10.16l-7.938 21.59q-.794 2.381-2.381 4.127-1.429 1.588-3.969 1.588h-21.114q-2.54 0-4.603-1.111-2.064-1.112-2.7-3.652l-7.302-25.876q-.476-1.587-1.27-2.064-.635-.635-1.587-.635h-1.429q-.952 0-1.746.635-.635.477-1.111 2.064l-7.462 25.876q-.635 2.382-2.381 3.652-1.746 1.11-4.286 1.11H112.78q-2.54 0-4.445-1.587-1.746-1.587-2.54-4.127l-7.938-21.908q-2.063-5.873-2.54-10.16-.317-4.445-.317-9.525V53.45q0-3.016 1.27-4.286 1.429-1.43 4.445-1.43h24.447q3.017 0 4.287 1.43 1.428 1.27 1.428 4.286v58.42l9.208-20.003q1.27-2.698 3.334-3.81 2.063-1.111 5.08-1.111h6.667q3.016 0 5.08 1.111 2.064 1.112 3.334 3.81l9.207 20.003V53.45q0-3.016 1.27-4.286 1.43-1.43 4.445-1.43z"/></g></svg>